<svg xmlns="http://www.w3.org/2000/svg" width="420mm" height="297mm" viewBox="0 0 420 297"><rect x="0" y="0" width="420" height="297" fill="#fff"/><rect x="5.00" y="5.00" width="410.00" height="287.00" fill="none" stroke="#000" stroke-width="0.50"/><rect x="5.00" y="5.00" width="410.00" height="14.00" fill="none" stroke="#000" stroke-width="0.50"/><rect x="5.00" y="5.00" width="62.00" height="14.00" fill="none" stroke="#000" stroke-width="0.35"/><text x="36.00" y="14.20" font-family="Malgun Gothic, 'Noto Sans KR', sans-serif" font-size="5.40" text-anchor="middle" font-weight="bold" fill="#000">원산안면대교</text><text x="73.00" y="14.00" font-family="Malgun Gothic, 'Noto Sans KR', sans-serif" font-size="4.60" text-anchor="start" font-weight="bold" fill="#000">ID : 세로보(SN01 ~ SN04, STA 4+0215.0 ~ 4+0257.5)</text><text x="411.00" y="13.80" font-family="Malgun Gothic, 'Noto Sans KR', sans-serif" font-size="3.40" text-anchor="end" font-weight="normal" fill="#444">외관조사망도</text><line x1="20.33" y1="115.06" x2="303.67" y2="115.06" stroke="#c0c0c0" stroke-width="0.10"/><line x1="20.33" y1="113.77" x2="303.67" y2="113.77" stroke="#c0c0c0" stroke-width="0.10"/><line x1="20.33" y1="112.39" x2="303.67" y2="112.39" stroke="#c0c0c0" stroke-width="0.10"/><line x1="20.33" y1="113.68" x2="303.67" y2="113.68" stroke="#c0c0c0" stroke-width="0.10"/><line x1="20.33" y1="115.22" x2="303.67" y2="115.22" stroke="#c0c0c0" stroke-width="0.10"/><line x1="20.33" y1="112.22" x2="303.67" y2="112.22" stroke="#c0c0c0" stroke-width="0.10"/><line x1="20.33" y1="112.22" x2="20.33" y2="115.22" stroke="#000" stroke-width="0.20" stroke-dasharray="3,1.5"/><line x1="63.67" y1="112.22" x2="63.67" y2="115.22" stroke="#000" stroke-width="0.20" stroke-dasharray="3,1.5"/><line x1="143.67" y1="112.22" x2="143.67" y2="115.22" stroke="#000" stroke-width="0.20" stroke-dasharray="3,1.5"/><line x1="223.67" y1="112.22" x2="223.67" y2="115.22" stroke="#000" stroke-width="0.20" stroke-dasharray="3,1.5"/><line x1="303.67" y1="112.22" x2="303.67" y2="115.22" stroke="#000" stroke-width="0.20" stroke-dasharray="3,1.5"/><line x1="20.33" y1="115.06" x2="63.67" y2="115.06" stroke="#000" stroke-width="0.35"/><line x1="63.67" y1="112.39" x2="20.33" y2="112.39" stroke="#000" stroke-width="0.35"/><line x1="20.33" y1="115.22" x2="63.67" y2="115.22" stroke="#000" stroke-width="0.35"/><line x1="63.67" y1="112.22" x2="20.33" y2="112.22" stroke="#000" stroke-width="0.35"/><line x1="63.67" y1="115.06" x2="143.67" y2="115.06" stroke="#000" stroke-width="0.35"/><line x1="143.67" y1="112.39" x2="63.67" y2="112.39" stroke="#000" stroke-width="0.35"/><line x1="63.67" y1="115.22" x2="143.67" y2="115.22" stroke="#000" stroke-width="0.35"/><line x1="143.67" y1="112.22" x2="63.67" y2="112.22" stroke="#000" stroke-width="0.35"/><line x1="143.67" y1="115.06" x2="223.67" y2="115.06" stroke="#000" stroke-width="0.35"/><line x1="223.67" y1="112.39" x2="143.67" y2="112.39" stroke="#000" stroke-width="0.35"/><line x1="143.67" y1="115.22" x2="223.67" y2="115.22" stroke="#000" stroke-width="0.35"/><line x1="223.67" y1="112.22" x2="143.67" y2="112.22" stroke="#000" stroke-width="0.35"/><line x1="223.67" y1="115.06" x2="303.67" y2="115.06" stroke="#000" stroke-width="0.35"/><line x1="303.67" y1="112.39" x2="223.67" y2="112.39" stroke="#000" stroke-width="0.35"/><line x1="223.67" y1="115.22" x2="303.67" y2="115.22" stroke="#000" stroke-width="0.35"/><line x1="303.67" y1="112.22" x2="223.67" y2="112.22" stroke="#000" stroke-width="0.35"/><line x1="20.33" y1="110.22" x2="20.33" y2="112.22" stroke="#000" stroke-width="0.13"/><text x="20.33" y="109.42" font-family="Malgun Gothic, 'Noto Sans KR', sans-serif" font-size="1.90" text-anchor="middle" font-weight="normal" fill="#000">STA 4+0215.0</text><line x1="63.67" y1="110.22" x2="63.67" y2="112.22" stroke="#000" stroke-width="0.13"/><text x="63.67" y="109.42" font-family="Malgun Gothic, 'Noto Sans KR', sans-serif" font-size="1.90" text-anchor="middle" font-weight="normal" fill="#000">STA 4+0221.5</text><line x1="143.67" y1="110.22" x2="143.67" y2="112.22" stroke="#000" stroke-width="0.13"/><text x="143.67" y="109.42" font-family="Malgun Gothic, 'Noto Sans KR', sans-serif" font-size="1.90" text-anchor="middle" font-weight="normal" fill="#000">STA 4+0233.5</text><line x1="223.67" y1="110.22" x2="223.67" y2="112.22" stroke="#000" stroke-width="0.13"/><text x="223.67" y="109.42" font-family="Malgun Gothic, 'Noto Sans KR', sans-serif" font-size="1.90" text-anchor="middle" font-weight="normal" fill="#000">STA 4+0245.5</text><line x1="303.67" y1="110.22" x2="303.67" y2="112.22" stroke="#000" stroke-width="0.13"/><text x="303.67" y="109.42" font-family="Malgun Gothic, 'Noto Sans KR', sans-serif" font-size="1.90" text-anchor="middle" font-weight="normal" fill="#000">STA 4+0257.5</text><text x="42.00" y="111.62" font-family="Malgun Gothic, 'Noto Sans KR', sans-serif" font-size="2.20" text-anchor="middle" font-weight="normal" fill="#555">SN01</text><text x="103.67" y="111.62" font-family="Malgun Gothic, 'Noto Sans KR', sans-serif" font-size="2.20" text-anchor="middle" font-weight="normal" fill="#555">SN02</text><text x="183.67" y="111.62" font-family="Malgun Gothic, 'Noto Sans KR', sans-serif" font-size="2.20" text-anchor="middle" font-weight="normal" fill="#555">SN03</text><text x="263.67" y="111.62" font-family="Malgun Gothic, 'Noto Sans KR', sans-serif" font-size="2.20" text-anchor="middle" font-weight="normal" fill="#555">SN04</text><line x1="27.00" y1="110.52" x2="27.00" y2="111.82" stroke="#808080" stroke-width="0.16"/><line x1="53.67" y1="110.52" x2="53.67" y2="111.82" stroke="#808080" stroke-width="0.16"/><line x1="80.33" y1="110.52" x2="80.33" y2="111.82" stroke="#808080" stroke-width="0.16"/><line x1="107.00" y1="110.52" x2="107.00" y2="111.82" stroke="#808080" stroke-width="0.16"/><line x1="133.67" y1="110.52" x2="133.67" y2="111.82" stroke="#808080" stroke-width="0.16"/><line x1="160.33" y1="110.52" x2="160.33" y2="111.82" stroke="#808080" stroke-width="0.16"/><line x1="187.00" y1="110.52" x2="187.00" y2="111.82" stroke="#808080" stroke-width="0.16"/><line x1="213.67" y1="110.52" x2="213.67" y2="111.82" stroke="#808080" stroke-width="0.16"/><line x1="240.33" y1="110.52" x2="240.33" y2="111.82" stroke="#808080" stroke-width="0.16"/><line x1="267.00" y1="110.52" x2="267.00" y2="111.82" stroke="#808080" stroke-width="0.16"/><line x1="293.67" y1="110.52" x2="293.67" y2="111.82" stroke="#808080" stroke-width="0.16"/><text x="162.00" y="119.42" font-family="Malgun Gothic, 'Noto Sans KR', sans-serif" font-size="2.70" text-anchor="middle" font-weight="bold" fill="#000">세로보 하면</text><line x1="20.33" y1="129.75" x2="63.67" y2="129.33" stroke="#c0c0c0" stroke-width="0.10"/><line x1="20.33" y1="129.67" x2="63.67" y2="129.25" stroke="#c0c0c0" stroke-width="0.10"/><line x1="20.33" y1="126.51" x2="63.67" y2="126.09" stroke="#c0c0c0" stroke-width="0.10"/><line x1="20.33" y1="126.42" x2="63.67" y2="126.00" stroke="#c0c0c0" stroke-width="0.10"/><line x1="63.67" y1="129.33" x2="143.67" y2="128.64" stroke="#c0c0c0" stroke-width="0.10"/><line x1="63.67" y1="129.25" x2="143.67" y2="128.56" stroke="#c0c0c0" stroke-width="0.10"/><line x1="63.67" y1="126.09" x2="143.67" y2="125.40" stroke="#c0c0c0" stroke-width="0.10"/><line x1="63.67" y1="126.00" x2="143.67" y2="125.31" stroke="#c0c0c0" stroke-width="0.10"/><line x1="143.67" y1="128.64" x2="223.67" y2="128.05" stroke="#c0c0c0" stroke-width="0.10"/><line x1="143.67" y1="128.56" x2="223.67" y2="127.97" stroke="#c0c0c0" stroke-width="0.10"/><line x1="143.67" y1="125.40" x2="223.67" y2="124.81" stroke="#c0c0c0" stroke-width="0.10"/><line x1="143.67" y1="125.31" x2="223.67" y2="124.71" stroke="#c0c0c0" stroke-width="0.10"/><line x1="223.67" y1="128.05" x2="303.67" y2="127.56" stroke="#c0c0c0" stroke-width="0.10"/><line x1="223.67" y1="127.97" x2="303.67" y2="127.48" stroke="#c0c0c0" stroke-width="0.10"/><line x1="223.67" y1="124.81" x2="303.67" y2="124.32" stroke="#c0c0c0" stroke-width="0.10"/><line x1="223.67" y1="124.72" x2="303.67" y2="124.22" stroke="#c0c0c0" stroke-width="0.10"/><line x1="20.33" y1="126.42" x2="20.33" y2="129.75" stroke="#000" stroke-width="0.20" stroke-dasharray="3,1.5"/><line x1="63.67" y1="126.00" x2="63.67" y2="129.33" stroke="#000" stroke-width="0.20" stroke-dasharray="3,1.5"/><line x1="143.67" y1="125.31" x2="143.67" y2="128.64" stroke="#000" stroke-width="0.20" stroke-dasharray="3,1.5"/><line x1="223.67" y1="124.71" x2="223.67" y2="128.05" stroke="#000" stroke-width="0.20" stroke-dasharray="3,1.5"/><line x1="303.67" y1="124.22" x2="303.67" y2="127.56" stroke="#000" stroke-width="0.20" stroke-dasharray="3,1.5"/><line x1="20.33" y1="129.75" x2="63.67" y2="129.33" stroke="#000" stroke-width="0.35"/><line x1="20.33" y1="129.67" x2="63.67" y2="129.25" stroke="#000" stroke-width="0.35"/><line x1="20.33" y1="126.51" x2="63.67" y2="126.09" stroke="#000" stroke-width="0.35"/><line x1="20.33" y1="126.42" x2="63.67" y2="126.00" stroke="#000" stroke-width="0.35"/><line x1="63.67" y1="129.33" x2="143.67" y2="128.64" stroke="#000" stroke-width="0.35"/><line x1="63.67" y1="129.25" x2="143.67" y2="128.56" stroke="#000" stroke-width="0.35"/><line x1="63.67" y1="126.09" x2="143.67" y2="125.40" stroke="#000" stroke-width="0.35"/><line x1="63.67" y1="126.00" x2="143.67" y2="125.31" stroke="#000" stroke-width="0.35"/><line x1="143.67" y1="128.64" x2="223.67" y2="128.05" stroke="#000" stroke-width="0.35"/><line x1="143.67" y1="128.56" x2="223.67" y2="127.97" stroke="#000" stroke-width="0.35"/><line x1="143.67" y1="125.40" x2="223.67" y2="124.81" stroke="#000" stroke-width="0.35"/><line x1="143.67" y1="125.31" x2="223.67" y2="124.71" stroke="#000" stroke-width="0.35"/><line x1="223.67" y1="128.05" x2="303.67" y2="127.56" stroke="#000" stroke-width="0.35"/><line x1="223.67" y1="127.97" x2="303.67" y2="127.48" stroke="#000" stroke-width="0.35"/><line x1="223.67" y1="124.81" x2="303.67" y2="124.32" stroke="#000" stroke-width="0.35"/><line x1="223.67" y1="124.72" x2="303.67" y2="124.22" stroke="#000" stroke-width="0.35"/><text x="162.00" y="133.95" font-family="Malgun Gothic, 'Noto Sans KR', sans-serif" font-size="2.70" text-anchor="middle" font-weight="bold" fill="#000">세로보 동측면</text><line x1="20.33" y1="144.28" x2="63.67" y2="143.86" stroke="#c0c0c0" stroke-width="0.10"/><line x1="20.33" y1="144.20" x2="63.67" y2="143.78" stroke="#c0c0c0" stroke-width="0.10"/><line x1="20.33" y1="141.04" x2="63.67" y2="140.62" stroke="#c0c0c0" stroke-width="0.10"/><line x1="20.33" y1="140.94" x2="63.67" y2="140.53" stroke="#c0c0c0" stroke-width="0.10"/><line x1="63.67" y1="143.86" x2="143.67" y2="143.17" stroke="#c0c0c0" stroke-width="0.10"/><line x1="63.67" y1="143.78" x2="143.67" y2="143.09" stroke="#c0c0c0" stroke-width="0.10"/><line x1="63.67" y1="140.62" x2="143.67" y2="139.93" stroke="#c0c0c0" stroke-width="0.10"/><line x1="63.67" y1="140.53" x2="143.67" y2="139.84" stroke="#c0c0c0" stroke-width="0.10"/><line x1="143.67" y1="143.17" x2="223.67" y2="142.58" stroke="#c0c0c0" stroke-width="0.10"/><line x1="143.67" y1="143.08" x2="223.67" y2="142.49" stroke="#c0c0c0" stroke-width="0.10"/><line x1="143.67" y1="139.93" x2="223.67" y2="139.33" stroke="#c0c0c0" stroke-width="0.10"/><line x1="143.67" y1="139.83" x2="223.67" y2="139.24" stroke="#c0c0c0" stroke-width="0.10"/><line x1="223.67" y1="142.58" x2="303.67" y2="142.08" stroke="#c0c0c0" stroke-width="0.10"/><line x1="223.67" y1="142.49" x2="303.67" y2="142.01" stroke="#c0c0c0" stroke-width="0.10"/><line x1="223.67" y1="139.34" x2="303.67" y2="138.85" stroke="#c0c0c0" stroke-width="0.10"/><line x1="223.67" y1="139.24" x2="303.67" y2="138.75" stroke="#c0c0c0" stroke-width="0.10"/><line x1="20.33" y1="140.94" x2="20.33" y2="144.28" stroke="#000" stroke-width="0.20" stroke-dasharray="3,1.5"/><line x1="63.67" y1="140.53" x2="63.67" y2="143.86" stroke="#000" stroke-width="0.20" stroke-dasharray="3,1.5"/><line x1="143.67" y1="139.83" x2="143.67" y2="143.17" stroke="#000" stroke-width="0.20" stroke-dasharray="3,1.5"/><line x1="223.67" y1="139.24" x2="223.67" y2="142.58" stroke="#000" stroke-width="0.20" stroke-dasharray="3,1.5"/><line x1="303.67" y1="138.75" x2="303.67" y2="142.08" stroke="#000" stroke-width="0.20" stroke-dasharray="3,1.5"/><line x1="63.67" y1="143.86" x2="20.33" y2="144.28" stroke="#000" stroke-width="0.35"/><line x1="20.33" y1="144.20" x2="63.67" y2="143.78" stroke="#000" stroke-width="0.35"/><line x1="63.67" y1="140.62" x2="20.33" y2="141.04" stroke="#000" stroke-width="0.35"/><line x1="63.67" y1="140.53" x2="20.33" y2="140.94" stroke="#000" stroke-width="0.35"/><line x1="143.67" y1="143.17" x2="63.67" y2="143.86" stroke="#000" stroke-width="0.35"/><line x1="63.67" y1="143.78" x2="143.67" y2="143.09" stroke="#000" stroke-width="0.35"/><line x1="143.67" y1="139.93" x2="63.67" y2="140.62" stroke="#000" stroke-width="0.35"/><line x1="143.67" y1="139.84" x2="63.67" y2="140.53" stroke="#000" stroke-width="0.35"/><line x1="223.67" y1="142.58" x2="143.67" y2="143.17" stroke="#000" stroke-width="0.35"/><line x1="143.67" y1="143.08" x2="223.67" y2="142.49" stroke="#000" stroke-width="0.35"/><line x1="223.67" y1="139.33" x2="143.67" y2="139.93" stroke="#000" stroke-width="0.35"/><line x1="223.67" y1="139.24" x2="143.67" y2="139.83" stroke="#000" stroke-width="0.35"/><line x1="303.67" y1="142.08" x2="223.67" y2="142.58" stroke="#000" stroke-width="0.35"/><line x1="223.67" y1="142.49" x2="303.67" y2="142.01" stroke="#000" stroke-width="0.35"/><line x1="303.67" y1="138.85" x2="223.67" y2="139.34" stroke="#000" stroke-width="0.35"/><line x1="303.67" y1="138.75" x2="223.67" y2="139.24" stroke="#000" stroke-width="0.35"/><text x="162.00" y="148.48" font-family="Malgun Gothic, 'Noto Sans KR', sans-serif" font-size="2.70" text-anchor="middle" font-weight="bold" fill="#000">세로보 서측면</text><text x="20.33" y="156.28" font-family="Malgun Gothic, 'Noto Sans KR', sans-serif" font-size="3.20" text-anchor="start" font-weight="bold" fill="#000">SCALE 1 : 150</text><text x="62.33" y="156.28" font-family="Malgun Gothic, 'Noto Sans KR', sans-serif" font-size="2.20" text-anchor="start" font-weight="normal" fill="#808080">※ 상단 회색 틱 = 가로보 교차 위치</text><text x="365.00" y="26.00" font-family="Malgun Gothic, 'Noto Sans KR', sans-serif" font-size="3.80" text-anchor="middle" font-weight="bold" fill="#000">손 상 물 량 표</text><rect x="318.00" y="28.00" width="94.00" height="218.10" fill="none" stroke="#000" stroke-width="0.35"/><text x="321.46" y="32.20" font-family="Malgun Gothic, 'Noto Sans KR', sans-serif" font-size="2.10" text-anchor="middle" font-weight="normal" fill="#000">번호</text><line x1="324.93" y1="28.00" x2="324.93" y2="246.10" stroke="#000" stroke-width="0.13"/><text x="329.38" y="32.20" font-family="Malgun Gothic, 'Noto Sans KR', sans-serif" font-size="2.10" text-anchor="middle" font-weight="normal" fill="#000">년도</text><line x1="333.83" y1="28.00" x2="333.83" y2="246.10" stroke="#000" stroke-width="0.13"/><text x="339.77" y="32.20" font-family="Malgun Gothic, 'Noto Sans KR', sans-serif" font-size="2.10" text-anchor="middle" font-weight="normal" fill="#000">부재</text><line x1="345.71" y1="28.00" x2="345.71" y2="246.10" stroke="#000" stroke-width="0.13"/><text x="354.12" y="32.20" font-family="Malgun Gothic, 'Noto Sans KR', sans-serif" font-size="2.10" text-anchor="middle" font-weight="normal" fill="#000">손상내용</text><line x1="362.53" y1="28.00" x2="362.53" y2="246.10" stroke="#000" stroke-width="0.13"/><text x="366.98" y="32.20" font-family="Malgun Gothic, 'Noto Sans KR', sans-serif" font-size="2.10" text-anchor="middle" font-weight="normal" fill="#000">폭·너비</text><line x1="371.43" y1="28.00" x2="371.43" y2="246.10" stroke="#000" stroke-width="0.13"/><text x="375.39" y="32.20" font-family="Malgun Gothic, 'Noto Sans KR', sans-serif" font-size="2.10" text-anchor="middle" font-weight="normal" fill="#000">길이</text><line x1="379.35" y1="28.00" x2="379.35" y2="246.10" stroke="#000" stroke-width="0.13"/><text x="382.81" y="32.20" font-family="Malgun Gothic, 'Noto Sans KR', sans-serif" font-size="2.10" text-anchor="middle" font-weight="normal" fill="#000">개소</text><line x1="386.27" y1="28.00" x2="386.27" y2="246.10" stroke="#000" stroke-width="0.13"/><text x="390.23" y="32.20" font-family="Malgun Gothic, 'Noto Sans KR', sans-serif" font-size="2.10" text-anchor="middle" font-weight="normal" fill="#000">물량</text><line x1="394.19" y1="28.00" x2="394.19" y2="246.10" stroke="#000" stroke-width="0.13"/><text x="397.65" y="32.20" font-family="Malgun Gothic, 'Noto Sans KR', sans-serif" font-size="2.10" text-anchor="middle" font-weight="normal" fill="#000">단위</text><line x1="401.12" y1="28.00" x2="401.12" y2="246.10" stroke="#000" stroke-width="0.13"/><text x="406.56" y="32.20" font-family="Malgun Gothic, 'Noto Sans KR', sans-serif" font-size="2.10" text-anchor="middle" font-weight="normal" fill="#000">보수방안</text><line x1="318.00" y1="34.50" x2="412.00" y2="34.50" stroke="#000" stroke-width="0.30"/><line x1="318.00" y1="39.10" x2="412.00" y2="39.10" stroke="#000" stroke-width="0.13"/><line x1="318.00" y1="43.70" x2="412.00" y2="43.70" stroke="#000" stroke-width="0.13"/><line x1="318.00" y1="48.30" x2="412.00" y2="48.30" stroke="#000" stroke-width="0.13"/><line x1="318.00" y1="52.90" x2="412.00" y2="52.90" stroke="#000" stroke-width="0.13"/><line x1="318.00" y1="57.50" x2="412.00" y2="57.50" stroke="#000" stroke-width="0.13"/><line x1="318.00" y1="62.10" x2="412.00" y2="62.10" stroke="#000" stroke-width="0.13"/><line x1="318.00" y1="66.70" x2="412.00" y2="66.70" stroke="#000" stroke-width="0.13"/><line x1="318.00" y1="71.30" x2="412.00" y2="71.30" stroke="#000" stroke-width="0.13"/><line x1="318.00" y1="75.90" x2="412.00" y2="75.90" stroke="#000" stroke-width="0.13"/><line x1="318.00" y1="80.50" x2="412.00" y2="80.50" stroke="#000" stroke-width="0.13"/><line x1="318.00" y1="85.10" x2="412.00" y2="85.10" stroke="#000" stroke-width="0.13"/><line x1="318.00" y1="89.70" x2="412.00" y2="89.70" stroke="#000" stroke-width="0.13"/><line x1="318.00" y1="94.30" x2="412.00" y2="94.30" stroke="#000" stroke-width="0.13"/><line x1="318.00" y1="98.90" x2="412.00" y2="98.90" stroke="#000" stroke-width="0.13"/><line x1="318.00" y1="103.50" x2="412.00" y2="103.50" stroke="#000" stroke-width="0.13"/><line x1="318.00" y1="108.10" x2="412.00" y2="108.10" stroke="#000" stroke-width="0.13"/><line x1="318.00" y1="112.70" x2="412.00" y2="112.70" stroke="#000" stroke-width="0.13"/><line x1="318.00" y1="117.30" x2="412.00" y2="117.30" stroke="#000" stroke-width="0.13"/><line x1="318.00" y1="121.90" x2="412.00" y2="121.90" stroke="#000" stroke-width="0.13"/><line x1="318.00" y1="126.50" x2="412.00" y2="126.50" stroke="#000" stroke-width="0.13"/><line x1="318.00" y1="131.10" x2="412.00" y2="131.10" stroke="#000" stroke-width="0.13"/><line x1="318.00" y1="135.70" x2="412.00" y2="135.70" stroke="#000" stroke-width="0.13"/><line x1="318.00" y1="140.30" x2="412.00" y2="140.30" stroke="#000" stroke-width="0.13"/><line x1="318.00" y1="144.90" x2="412.00" y2="144.90" stroke="#000" stroke-width="0.13"/><line x1="318.00" y1="149.50" x2="412.00" y2="149.50" stroke="#000" stroke-width="0.13"/><line x1="318.00" y1="154.10" x2="412.00" y2="154.10" stroke="#000" stroke-width="0.13"/><line x1="318.00" y1="158.70" x2="412.00" y2="158.70" stroke="#000" stroke-width="0.13"/><line x1="318.00" y1="163.30" x2="412.00" y2="163.30" stroke="#000" stroke-width="0.13"/><line x1="318.00" y1="167.90" x2="412.00" y2="167.90" stroke="#000" stroke-width="0.13"/><line x1="318.00" y1="172.50" x2="412.00" y2="172.50" stroke="#000" stroke-width="0.13"/><line x1="318.00" y1="177.10" x2="412.00" y2="177.10" stroke="#000" stroke-width="0.13"/><line x1="318.00" y1="181.70" x2="412.00" y2="181.70" stroke="#000" stroke-width="0.13"/><line x1="318.00" y1="186.30" x2="412.00" y2="186.30" stroke="#000" stroke-width="0.13"/><line x1="318.00" y1="190.90" x2="412.00" y2="190.90" stroke="#000" stroke-width="0.13"/><line x1="318.00" y1="195.50" x2="412.00" y2="195.50" stroke="#000" stroke-width="0.13"/><line x1="318.00" y1="200.10" x2="412.00" y2="200.10" stroke="#000" stroke-width="0.13"/><line x1="318.00" y1="204.70" x2="412.00" y2="204.70" stroke="#000" stroke-width="0.13"/><line x1="318.00" y1="209.30" x2="412.00" y2="209.30" stroke="#000" stroke-width="0.13"/><line x1="318.00" y1="213.90" x2="412.00" y2="213.90" stroke="#000" stroke-width="0.13"/><line x1="318.00" y1="218.50" x2="412.00" y2="218.50" stroke="#000" stroke-width="0.13"/><line x1="318.00" y1="223.10" x2="412.00" y2="223.10" stroke="#000" stroke-width="0.13"/><line x1="318.00" y1="227.70" x2="412.00" y2="227.70" stroke="#000" stroke-width="0.13"/><line x1="318.00" y1="232.30" x2="412.00" y2="232.30" stroke="#000" stroke-width="0.13"/><line x1="318.00" y1="236.90" x2="412.00" y2="236.90" stroke="#000" stroke-width="0.13"/><line x1="318.00" y1="241.50" x2="412.00" y2="241.50" stroke="#000" stroke-width="0.13"/><rect x="5.00" y="248.00" width="226.00" height="44.00" fill="none" stroke="#000" stroke-width="0.35"/><rect x="231.00" y="248.00" width="102.00" height="44.00" fill="none" stroke="#000" stroke-width="0.35"/><rect x="333.00" y="248.00" width="82.00" height="44.00" fill="none" stroke="#000" stroke-width="0.35"/><rect x="5.00" y="248.00" width="8.00" height="44.00" fill="none" stroke="#000" stroke-width="0.35"/><text x="9.00" y="253.73" font-family="Malgun Gothic, 'Noto Sans KR', sans-serif" font-size="2.40" text-anchor="middle" font-weight="bold" fill="#000">K</text><text x="9.00" y="258.62" font-family="Malgun Gothic, 'Noto Sans KR', sans-serif" font-size="2.40" text-anchor="middle" font-weight="bold" fill="#000">E</text><text x="9.00" y="263.51" font-family="Malgun Gothic, 'Noto Sans KR', sans-serif" font-size="2.40" text-anchor="middle" font-weight="bold" fill="#000">Y</text><text x="9.00" y="273.28" font-family="Malgun Gothic, 'Noto Sans KR', sans-serif" font-size="2.40" text-anchor="middle" font-weight="bold" fill="#000">P</text><text x="9.00" y="278.17" font-family="Malgun Gothic, 'Noto Sans KR', sans-serif" font-size="2.40" text-anchor="middle" font-weight="bold" fill="#000">L</text><text x="9.00" y="283.06" font-family="Malgun Gothic, 'Noto Sans KR', sans-serif" font-size="2.40" text-anchor="middle" font-weight="bold" fill="#000">A</text><text x="9.00" y="287.95" font-family="Malgun Gothic, 'Noto Sans KR', sans-serif" font-size="2.40" text-anchor="middle" font-weight="bold" fill="#000">N</text><rect x="231.00" y="248.00" width="8.00" height="44.00" fill="none" stroke="#000" stroke-width="0.35"/><text x="235.00" y="254.34" font-family="Malgun Gothic, 'Noto Sans KR', sans-serif" font-size="2.40" text-anchor="middle" font-weight="bold" fill="#000">S</text><text x="235.00" y="259.84" font-family="Malgun Gothic, 'Noto Sans KR', sans-serif" font-size="2.40" text-anchor="middle" font-weight="bold" fill="#000">E</text><text x="235.00" y="265.34" font-family="Malgun Gothic, 'Noto Sans KR', sans-serif" font-size="2.40" text-anchor="middle" font-weight="bold" fill="#000">C</text><text x="235.00" y="270.84" font-family="Malgun Gothic, 'Noto Sans KR', sans-serif" font-size="2.40" text-anchor="middle" font-weight="bold" fill="#000">T</text><text x="235.00" y="276.34" font-family="Malgun Gothic, 'Noto Sans KR', sans-serif" font-size="2.40" text-anchor="middle" font-weight="bold" fill="#000">I</text><text x="235.00" y="281.84" font-family="Malgun Gothic, 'Noto Sans KR', sans-serif" font-size="2.40" text-anchor="middle" font-weight="bold" fill="#000">O</text><text x="235.00" y="287.34" font-family="Malgun Gothic, 'Noto Sans KR', sans-serif" font-size="2.40" text-anchor="middle" font-weight="bold" fill="#000">N</text><rect x="333.00" y="248.00" width="8.00" height="44.00" fill="none" stroke="#000" stroke-width="0.35"/><text x="337.00" y="263.72" font-family="Malgun Gothic, 'Noto Sans KR', sans-serif" font-size="3.00" text-anchor="middle" font-weight="bold" fill="#000">범</text><text x="337.00" y="278.38" font-family="Malgun Gothic, 'Noto Sans KR', sans-serif" font-size="3.00" text-anchor="middle" font-weight="bold" fill="#000">례</text><g transform="translate(13.00,248.00)"><g id="kp" fill="none" stroke="#000" stroke-linejoin="round"><path d="M8.00 28.71 L8.13 28.52 L9.97 28.49 L9.87 28.36 L10.30 28.16 L10.94 28.01 L11.01 28.09 L10.51 28.40 L10.19 28.49 L11.81 28.47 L11.65 28.27 L12.09 28.07 L12.73 27.91 L12.80 27.99 L11.87 28.47 L15.36 28.42 L15.21 28.24 L15.63 28.03 L15.95 27.98 L15.83 28.23 L15.39 28.41 L20.66 28.34 L20.52 28.18 L20.91 27.95 L21.23 27.89 L21.13 28.14 L20.70 28.34 L25.97 28.27 L25.83 28.12 L26.20 27.88 L26.51 27.81 L26.43 28.06 L26.01 28.27 L31.26 28.21 L31.12 28.07 L31.48 27.80 L31.93 27.62 L31.72 27.97 L31.32 28.20 L36.59 28.14 L36.41 28.03 L37.15 27.52 L36.99 27.90 L36.64 28.14 L41.84 28.09 L41.71 27.99 L42.34 27.43 L42.26 27.81 L41.98 28.08 L47.20 28.03 L47.00 27.97 L47.48 27.34 L47.51 27.72 L47.31 28.03 L53.93 27.97 L53.93 6.00 L55.16 6.19 L56.40 6.00 L56.40 27.95 L62.98 27.90 L62.80 27.22 L63.30 27.84 L63.12 27.89 L68.36 27.86 L68.07 27.58 L67.96 27.21 L68.33 27.46 L68.59 27.77 L68.42 27.86 L84.30 27.78 L83.87 27.57 L83.74 27.29 L84.09 27.37 L84.49 27.61 L84.31 27.78 L89.55 27.76 L89.12 27.53 L88.96 27.27 L89.33 27.34 L89.74 27.56 L89.57 27.76 L94.89 27.75 L94.45 27.55 L94.28 27.29 L94.66 27.35 L95.08 27.55 L94.92 27.74 L100.20 27.74 L99.76 27.55 L99.56 27.29 L99.94 27.34 L100.39 27.53 L100.23 27.74 L105.50 27.73 L104.75 27.35 L104.79 27.28 L105.25 27.34 L105.69 27.52 L105.55 27.73 L112.59 27.73 L112.45 27.52 L112.89 27.34 L113.34 27.28 L113.39 27.35 L112.63 27.73 L117.91 27.74 L117.75 27.53 L118.20 27.34 L118.57 27.29 L118.37 27.55 L117.94 27.74 L123.21 27.74 L123.06 27.55 L123.48 27.35 L123.86 27.29 L123.69 27.55 L123.25 27.75 L128.56 27.76 L128.39 27.56 L128.81 27.34 L129.17 27.27 L129.01 27.53 L128.58 27.76 L133.82 27.78 L133.64 27.61 L134.04 27.37 L134.39 27.29 L134.26 27.57 L133.84 27.78 L149.71 27.86 L149.54 27.77 L150.17 27.21 L150.06 27.58 L149.78 27.86 L154.95 27.89 L155.01 27.51 L155.34 27.22 L155.31 27.58 L155.11 27.89 L161.74 27.95 L161.74 6.00 L162.97 6.19 L164.21 6.00 L164.21 27.97 L170.83 28.03 L170.63 27.73 L170.66 27.34 L171.13 27.97 L170.94 28.03 L176.16 28.08 L175.88 27.81 L175.70 27.47 L175.80 27.43 L176.16 27.68 L176.42 27.99 L176.24 28.08 L181.49 28.14 L181.14 27.90 L180.90 27.58 L180.99 27.52 L181.73 28.03 L181.52 28.14 L186.81 28.20 L186.42 27.97 L186.20 27.62 L186.66 27.80 L187.02 28.07 L186.87 28.21 L192.13 28.27 L191.71 28.06 L191.63 27.81 L191.93 27.88 L192.31 28.12 L192.17 28.27 L197.44 28.34 L197.01 28.14 L196.90 27.89 L197.22 27.95 L197.62 28.18 L197.47 28.34 L202.74 28.41 L202.43 28.24 L202.89 28.25 L202.48 28.07 L202.31 28.23 L202.13 28.05 L202.18 27.98 L202.51 28.03 L202.92 28.24 L202.78 28.42 L206.27 28.47 L205.86 28.30 L205.85 28.19 L205.34 27.99 L205.41 27.91 L206.05 28.07 L206.49 28.27 L206.33 28.47 L207.94 28.49 L207.63 28.40 L207.12 28.09 L207.20 28.01 L207.83 28.16 L208.27 28.36 L208.17 28.49 L210.00 28.52 L210.00 29.50 L202.96 29.39 L201.80 29.10 L164.21 28.68 L164.32 37.50 L167.69 37.50 L167.69 38.97 L159.16 39.00 L158.26 38.97 L158.26 37.50 L161.63 37.50 L161.73 28.64 L113.78 28.43 L56.40 28.64 L56.51 37.50 L59.88 37.50 L59.88 38.97 L51.34 39.00 L50.44 38.97 L50.44 37.50 L53.81 37.50 L53.92 28.68 L16.34 29.10 L15.18 29.39 L8.13 29.50 L8.00 28.71 Z" stroke-width="0.25"/><path d="M41.99 27.70 L41.99 27.71 L42.02 27.71 L41.98 27.70 L41.99 27.70 Z" stroke-width="0.25"/><path d="M105.20 27.38 L105.20 27.40 L105.21 27.37 L105.20 27.38 L105.20 27.38 Z" stroke-width="0.25"/><path d="M105.18 27.41 L105.19 27.41 L105.20 27.40 L105.18 27.41 Z" stroke-width="0.25"/><path d="M112.95 27.40 L112.94 27.41 L112.91 27.37 L112.48 27.53 L112.60 27.68 L113.03 27.53 L112.95 27.40 Z" stroke-width="0.25"/><path d="M112.94 27.38 L112.92 27.37 L112.94 27.40 L112.94 27.38 Z" stroke-width="0.25"/><path d="M175.95 27.77 L175.96 27.77 L175.96 27.76 L175.95 27.77 Z" stroke-width="0.25"/><path d="M20.91 28.39 L20.90 28.39 L24.84 28.34 L20.91 28.39 Z" stroke-width="0.25"/><path d="M11.90 28.23 L11.84 28.44 L12.26 28.26 L12.11 28.11 L11.68 28.27 L11.90 28.23 Z" stroke-width="0.25"/><path d="M10.14 28.36 L10.11 28.49 L10.46 28.37 L10.32 28.21 L9.90 28.37 L10.14 28.36 Z" stroke-width="0.25"/><path d="M15.44 28.18 L15.38 28.37 L15.79 28.20 L15.64 28.16 L15.65 28.07 L15.24 28.24 L15.44 28.18 Z" stroke-width="0.25"/><path d="M15.76 28.17 L15.76 28.18 L15.77 28.18 L15.77 28.17 L15.76 28.17 Z" stroke-width="0.25"/><path d="M15.68 28.07 L15.67 28.08 L15.68 28.08 L15.68 28.07 Z" stroke-width="0.25"/><path d="M20.81 28.16 L20.68 28.30 L21.08 28.11 L20.94 27.98 L20.55 28.18 L20.81 28.16 Z" stroke-width="0.25"/><path d="M20.68 28.28 L20.68 28.27 L20.67 28.28 L20.68 28.28 Z" stroke-width="0.25"/><path d="M20.70 28.39 L20.79 28.39 L20.79 28.39 L20.70 28.39 Z" stroke-width="0.25"/><path d="M20.89 28.39 L20.80 28.39 L20.80 28.39 L20.89 28.39 L20.89 28.39 Z" stroke-width="0.25"/><path d="M26.09 28.95 L26.06 28.96 L26.09 28.96 L26.09 28.95 Z" stroke-width="0.25"/><path d="M26.18 28.96 L26.18 28.95 L26.09 28.95 L26.09 28.96 L26.18 28.96 Z" stroke-width="0.25"/><path d="M26.03 28.04 L26.15 28.14 L26.36 28.00 L26.23 27.91 L25.85 28.12 L26.03 28.04 Z" stroke-width="0.25"/><path d="M26.06 28.18 L26.00 28.23 L26.15 28.14 L26.06 28.18 Z" stroke-width="0.25"/><path d="M26.37 28.02 L26.37 28.01 L26.36 28.01 L26.37 28.02 Z" stroke-width="0.25"/><path d="M25.89 28.15 L25.89 28.15 L25.90 28.15 L25.90 28.15 L25.89 28.15 Z" stroke-width="0.25"/><path d="M31.37 28.00 L31.31 28.17 L31.65 27.95 L31.49 27.85 L31.16 28.07 L31.37 28.00 Z" stroke-width="0.25"/><path d="M36.60 28.14 L36.62 28.14 L36.61 28.13 L36.60 28.14 Z" stroke-width="0.25"/><path d="M36.71 27.98 L36.62 28.12 L36.93 27.88 L36.77 27.79 L36.46 28.03 L36.71 27.98 Z" stroke-width="0.25"/><path d="M36.51 28.06 L36.51 28.06 L36.52 28.06 L36.52 28.06 L36.51 28.06 Z" stroke-width="0.25"/><path d="M36.53 28.07 L36.53 28.07 L36.53 28.07 L36.53 28.07 Z" stroke-width="0.25"/><path d="M36.80 27.78 L36.78 27.78 L36.80 27.79 L36.80 27.79 L36.80 27.78 Z" stroke-width="0.25"/><path d="M42.01 27.93 L42.19 27.79 L42.03 27.73 L41.84 27.94 L42.01 27.93 Z" stroke-width="0.25"/><path d="M41.79 27.99 L41.82 27.96 L41.78 27.99 L41.79 27.99 Z" stroke-width="0.25"/><path d="M41.77 28.00 L41.78 28.00 L41.78 27.99 L41.77 28.00 Z" stroke-width="0.25"/><path d="M53.92 28.67 L53.92 28.66 L52.89 28.67 L53.26 28.67 L53.92 28.67 Z" stroke-width="0.25"/><path d="M47.42 27.70 L47.40 27.70 L47.44 27.71 L47.42 27.70 L47.42 27.70 Z" stroke-width="0.25"/><path d="M47.30 27.74 L47.16 27.84 L47.33 27.88 L47.42 27.71 L47.30 27.74 Z" stroke-width="0.25"/><path d="M63.23 27.84 L63.21 27.84 L63.21 27.85 L63.23 27.84 Z" stroke-width="0.25"/><path d="M63.02 27.61 L62.91 27.58 L63.01 27.74 L63.15 27.71 L63.02 27.61 Z" stroke-width="0.25"/><path d="M68.39 27.83 L68.40 27.83 L68.40 27.82 L68.39 27.82 L68.39 27.83 Z" stroke-width="0.25"/><path d="M68.53 27.78 L68.54 27.78 L68.53 27.77 L68.53 27.78 Z" stroke-width="0.25"/><path d="M68.50 27.80 L68.50 27.79 L68.49 27.79 L68.49 27.80 L68.50 27.80 Z" stroke-width="0.25"/><path d="M68.39 27.67 L68.30 27.50 L68.14 27.56 L68.38 27.82 L68.39 27.67 Z" stroke-width="0.25"/><path d="M84.09 27.49 L83.93 27.54 L84.31 27.73 L84.45 27.62 L84.09 27.49 Z" stroke-width="0.25"/><path d="M89.29 27.50 L89.18 27.51 L89.56 27.70 L89.71 27.56 L89.29 27.50 Z" stroke-width="0.25"/><path d="M94.51 27.51 L94.92 27.69 L95.04 27.55 L94.64 27.38 L94.51 27.51 Z" stroke-width="0.25"/><path d="M100.17 27.65 L100.33 27.53 L99.93 27.38 L99.80 27.52 L100.17 27.65 Z" stroke-width="0.25"/><path d="M105.55 27.65 L105.45 27.47 L105.65 27.53 L105.22 27.37 L105.11 27.53 L105.55 27.65 Z" stroke-width="0.25"/><path d="M105.56 27.63 L105.57 27.63 L105.57 27.62 L105.56 27.63 Z" stroke-width="0.25"/><path d="M164.21 28.67 L164.21 28.67 L164.89 28.67 L164.21 28.67 Z" stroke-width="0.25"/><path d="M117.99 27.49 L117.90 27.68 L118.33 27.52 L118.20 27.37 L117.99 27.49 Z" stroke-width="0.25"/><path d="M117.81 27.56 L117.82 27.56 L117.81 27.55 L117.81 27.56 Z" stroke-width="0.25"/><path d="M117.90 27.65 L117.89 27.64 L117.88 27.64 L117.89 27.65 L117.90 27.65 Z" stroke-width="0.25"/><path d="M118.26 27.41 L118.26 27.41 L118.25 27.41 L118.26 27.41 Z" stroke-width="0.25"/><path d="M123.22 27.52 L123.22 27.69 L123.63 27.52 L123.50 27.38 L123.22 27.52 Z" stroke-width="0.25"/><path d="M129.14 27.29 L129.15 27.29 L129.15 27.29 L129.14 27.29 Z" stroke-width="0.25"/><path d="M128.64 27.52 L128.56 27.70 L128.96 27.51 L128.82 27.38 L128.43 27.56 L128.64 27.52 Z" stroke-width="0.25"/><path d="M128.50 27.61 L128.49 27.61 L128.49 27.62 L128.50 27.62 L128.50 27.61 Z" stroke-width="0.25"/><path d="M133.87 27.54 L133.83 27.73 L134.21 27.54 L134.07 27.41 L133.69 27.62 L133.87 27.54 Z" stroke-width="0.25"/><path d="M134.09 27.41 L134.10 27.43 L134.12 27.43 L134.11 27.42 L134.09 27.41 Z" stroke-width="0.25"/><path d="M149.60 27.77 L149.60 27.78 L149.61 27.78 L149.61 27.77 L149.60 27.77 Z" stroke-width="0.25"/><path d="M149.84 27.71 L149.99 27.56 L149.85 27.50 L149.71 27.66 L149.84 27.71 Z" stroke-width="0.25"/><path d="M150.00 27.56 L150.01 27.56 L149.99 27.55 L149.99 27.56 L150.00 27.56 Z" stroke-width="0.25"/><path d="M149.74 27.82 L149.73 27.83 L149.73 27.83 L149.75 27.82 L149.74 27.82 Z" stroke-width="0.25"/><path d="M155.11 27.73 L155.22 27.58 L155.10 27.55 L154.99 27.71 L155.11 27.73 Z" stroke-width="0.25"/><path d="M170.85 27.68 L170.72 27.71 L170.82 27.88 L170.96 27.84 L170.85 27.68 Z" stroke-width="0.25"/><path d="M176.17 27.91 L176.12 27.73 L175.95 27.79 L176.13 27.98 L176.17 27.91 Z" stroke-width="0.25"/><path d="M176.31 27.95 L176.34 27.99 L176.35 27.99 L176.31 27.95 Z" stroke-width="0.25"/><path d="M176.11 27.71 L176.11 27.71 L176.12 27.71 L176.11 27.71 Z" stroke-width="0.25"/><path d="M181.36 27.86 L181.20 27.88 L181.52 28.12 L181.42 27.98 L181.67 28.03 L181.36 27.86 Z" stroke-width="0.25"/><path d="M181.36 27.78 L181.33 27.79 L181.33 27.79 L181.36 27.78 Z" stroke-width="0.25"/><path d="M181.61 28.06 L181.62 28.06 L181.61 28.06 L181.61 28.06 Z" stroke-width="0.25"/><path d="M186.65 27.91 L186.49 27.95 L186.83 28.17 L186.97 28.07 L186.65 27.91 Z" stroke-width="0.25"/><path d="M191.89 28.02 L191.77 28.03 L192.14 28.24 L192.28 28.12 L191.89 28.02 Z" stroke-width="0.25"/><path d="M197.10 28.08 L197.29 28.21 L197.58 28.18 L197.20 27.98 L197.10 28.08 Z" stroke-width="0.25"/><path d="M197.39 28.27 L197.46 28.30 L197.48 28.28 L197.45 28.28 L197.30 28.21 L197.39 28.27 Z" stroke-width="0.25"/><path d="M197.48 28.27 L197.48 28.27 L197.47 28.27 L197.48 28.27 Z" stroke-width="0.25"/><path d="M197.54 28.23 L197.55 28.22 L197.54 28.22 L197.54 28.23 Z" stroke-width="0.25"/><path d="M197.50 28.25 L197.50 28.25 L197.49 28.25 L197.49 28.25 L197.50 28.25 Z" stroke-width="0.25"/><path d="M197.05 28.10 L197.06 28.10 L197.06 28.09 L197.05 28.10 Z" stroke-width="0.25"/><path d="M205.98 28.31 L206.30 28.43 L206.45 28.27 L206.03 28.11 L205.98 28.31 Z" stroke-width="0.25"/><path d="M205.87 28.27 L205.87 28.27 L205.88 28.27 L205.88 28.26 L205.87 28.27 Z" stroke-width="0.25"/><path d="M207.95 28.42 L208.23 28.37 L207.82 28.21 L207.67 28.37 L207.95 28.42 Z" stroke-width="0.25"/><path d="M207.20 28.03 L207.19 28.03 L207.19 28.04 L207.20 28.04 L207.20 28.03 Z" stroke-width="0.25"/><path d="M73.33 27.57 L73.14 27.22 L73.58 27.44 L73.88 27.72 L73.69 27.82 L73.33 27.57 Z" stroke-width="0.25"/><path d="M73.58 27.68 L73.84 27.71 L73.52 27.47 L73.39 27.55 L73.70 27.79 L73.58 27.68 Z" stroke-width="0.25"/><path d="M78.98 27.78 L78.58 27.57 L78.35 27.22 L78.83 27.40 L79.18 27.65 L78.98 27.78 Z" stroke-width="0.25"/><path d="M78.85 27.65 L78.99 27.57 L78.80 27.44 L78.65 27.55 L79.01 27.76 L78.85 27.65 Z" stroke-width="0.25"/><path d="M79.01 27.73 L79.01 27.73 L79.01 27.74 L79.01 27.73 Z" stroke-width="0.25"/><path d="M138.95 27.67 L139.30 27.40 L139.82 27.25 L139.55 27.57 L139.13 27.80 L138.95 27.67 Z" stroke-width="0.25"/><path d="M139.37 27.55 L139.34 27.44 L139.13 27.76 L139.48 27.55 L139.37 27.55 Z" stroke-width="0.25"/><path d="M139.18 27.60 L139.17 27.60 L139.18 27.61 L139.18 27.60 Z" stroke-width="0.25"/><path d="M139.48 27.52 L139.47 27.51 L139.46 27.51 L139.48 27.52 Z" stroke-width="0.25"/><path d="M144.58 27.46 L144.99 27.22 L145.06 27.25 L144.81 27.57 L144.42 27.82 L144.25 27.71 L144.58 27.46 Z" stroke-width="0.25"/><path d="M144.47 27.62 L144.44 27.78 L144.75 27.55 L144.61 27.47 L144.30 27.71 L144.47 27.62 Z" stroke-width="0.25"/><line x1="10.35" y1="28.27" x2="54.58" y2="10.61" stroke-width="0.15"/><line x1="10.35" y1="28.27" x2="54.58" y2="10.61" stroke-width="0.15"/><line x1="12.17" y1="28.21" x2="54.58" y2="11.06" stroke-width="0.15"/><line x1="12.17" y1="28.21" x2="54.58" y2="11.06" stroke-width="0.15"/><line x1="15.71" y1="28.15" x2="54.58" y2="11.53" stroke-width="0.15"/><line x1="15.71" y1="28.15" x2="54.58" y2="11.53" stroke-width="0.15"/><line x1="20.99" y1="28.05" x2="54.62" y2="12.05" stroke-width="0.15"/><line x1="20.99" y1="28.05" x2="54.62" y2="12.05" stroke-width="0.15"/><line x1="26.29" y1="27.99" x2="54.62" y2="12.53" stroke-width="0.15"/><line x1="26.29" y1="27.99" x2="54.62" y2="12.53" stroke-width="0.15"/><line x1="31.56" y1="27.90" x2="54.63" y2="13.04" stroke-width="0.15"/><line x1="31.56" y1="27.90" x2="54.63" y2="13.04" stroke-width="0.15"/><line x1="36.84" y1="27.84" x2="54.62" y2="13.57" stroke-width="0.15"/><line x1="36.84" y1="27.84" x2="54.62" y2="13.57" stroke-width="0.15"/><line x1="42.11" y1="27.77" x2="54.60" y2="14.17" stroke-width="0.15"/><line x1="42.11" y1="27.77" x2="54.60" y2="14.17" stroke-width="0.15"/><line x1="47.33" y1="27.70" x2="54.58" y2="14.99" stroke-width="0.15"/><line x1="47.33" y1="27.70" x2="54.58" y2="14.99" stroke-width="0.15"/><line x1="62.99" y1="27.57" x2="55.69" y2="14.99" stroke-width="0.15"/><line x1="62.99" y1="27.57" x2="55.69" y2="14.99" stroke-width="0.15"/><line x1="68.25" y1="27.53" x2="55.70" y2="14.17" stroke-width="0.15"/><line x1="68.25" y1="27.53" x2="55.70" y2="14.17" stroke-width="0.15"/><line x1="73.47" y1="27.52" x2="55.74" y2="13.54" stroke-width="0.15"/><line x1="73.47" y1="27.52" x2="55.74" y2="13.54" stroke-width="0.15"/><line x1="78.72" y1="27.51" x2="55.71" y2="13.02" stroke-width="0.15"/><line x1="78.72" y1="27.51" x2="55.71" y2="13.02" stroke-width="0.15"/><line x1="84.02" y1="27.47" x2="55.70" y2="12.52" stroke-width="0.15"/><line x1="84.02" y1="27.47" x2="55.70" y2="12.52" stroke-width="0.15"/><line x1="89.23" y1="27.47" x2="55.70" y2="12.04" stroke-width="0.15"/><line x1="89.23" y1="27.47" x2="55.70" y2="12.04" stroke-width="0.15"/><line x1="94.58" y1="27.46" x2="55.72" y2="11.53" stroke-width="0.15"/><line x1="94.58" y1="27.46" x2="55.72" y2="11.53" stroke-width="0.15"/><line x1="99.87" y1="27.47" x2="55.70" y2="11.09" stroke-width="0.15"/><line x1="99.87" y1="27.47" x2="55.70" y2="11.09" stroke-width="0.15"/><line x1="105.20" y1="27.43" x2="55.70" y2="10.63" stroke-width="0.15"/><line x1="105.20" y1="27.43" x2="55.70" y2="10.63" stroke-width="0.15"/><line x1="112.94" y1="27.43" x2="162.43" y2="10.63" stroke-width="0.15"/><line x1="112.94" y1="27.43" x2="162.43" y2="10.63" stroke-width="0.15"/><line x1="118.26" y1="27.47" x2="162.43" y2="11.09" stroke-width="0.15"/><line x1="118.26" y1="27.47" x2="162.43" y2="11.09" stroke-width="0.15"/><line x1="123.55" y1="27.46" x2="162.41" y2="11.53" stroke-width="0.15"/><line x1="123.55" y1="27.46" x2="162.41" y2="11.53" stroke-width="0.15"/><line x1="128.90" y1="27.47" x2="162.43" y2="12.04" stroke-width="0.15"/><line x1="128.90" y1="27.47" x2="162.43" y2="12.04" stroke-width="0.15"/><line x1="134.11" y1="27.47" x2="162.43" y2="12.52" stroke-width="0.15"/><line x1="134.11" y1="27.47" x2="162.43" y2="12.52" stroke-width="0.15"/><line x1="139.41" y1="27.51" x2="162.42" y2="13.02" stroke-width="0.15"/><line x1="139.41" y1="27.51" x2="162.42" y2="13.02" stroke-width="0.15"/><line x1="144.67" y1="27.52" x2="162.40" y2="13.54" stroke-width="0.15"/><line x1="144.67" y1="27.52" x2="162.40" y2="13.54" stroke-width="0.15"/><line x1="149.89" y1="27.53" x2="162.43" y2="14.17" stroke-width="0.15"/><line x1="149.89" y1="27.53" x2="162.43" y2="14.17" stroke-width="0.15"/><line x1="155.14" y1="27.57" x2="162.45" y2="14.99" stroke-width="0.15"/><line x1="155.14" y1="27.57" x2="162.45" y2="14.99" stroke-width="0.15"/><line x1="170.81" y1="27.70" x2="163.56" y2="14.99" stroke-width="0.15"/><line x1="170.81" y1="27.70" x2="163.56" y2="14.99" stroke-width="0.15"/><line x1="176.02" y1="27.78" x2="163.53" y2="14.17" stroke-width="0.15"/><line x1="176.02" y1="27.78" x2="163.53" y2="14.17" stroke-width="0.15"/><line x1="181.29" y1="27.84" x2="163.52" y2="13.57" stroke-width="0.15"/><line x1="181.29" y1="27.84" x2="163.52" y2="13.57" stroke-width="0.15"/><line x1="186.58" y1="27.90" x2="163.51" y2="13.04" stroke-width="0.15"/><line x1="186.58" y1="27.90" x2="163.51" y2="13.04" stroke-width="0.15"/><line x1="191.84" y1="27.99" x2="163.52" y2="12.53" stroke-width="0.15"/><line x1="191.84" y1="27.99" x2="163.52" y2="12.53" stroke-width="0.15"/><line x1="197.14" y1="28.05" x2="163.52" y2="12.05" stroke-width="0.15"/><line x1="197.14" y1="28.05" x2="163.52" y2="12.05" stroke-width="0.15"/><line x1="202.42" y1="28.15" x2="163.56" y2="11.53" stroke-width="0.15"/><line x1="202.42" y1="28.15" x2="163.56" y2="11.53" stroke-width="0.15"/><line x1="205.97" y1="28.21" x2="163.56" y2="11.06" stroke-width="0.15"/><line x1="205.97" y1="28.21" x2="163.56" y2="11.06" stroke-width="0.15"/><line x1="207.78" y1="28.27" x2="163.56" y2="10.61" stroke-width="0.15"/><line x1="207.78" y1="28.27" x2="163.56" y2="10.61" stroke-width="0.15"/><text x="55.16" y="4.80" font-family="Malgun Gothic, 'Noto Sans KR', sans-serif" font-size="2.4" text-anchor="middle" stroke="none" fill="#000">PY1</text><text x="162.97" y="4.80" font-family="Malgun Gothic, 'Noto Sans KR', sans-serif" font-size="2.4" text-anchor="middle" stroke="none" fill="#000">PY2</text><text x="8.00" y="42.50" font-family="Malgun Gothic, 'Noto Sans KR', sans-serif" font-size="2.6" stroke="none" fill="#000">← 보령 (원산도)</text><text x="210.00" y="42.50" font-family="Malgun Gothic, 'Noto Sans KR', sans-serif" font-size="2.6" text-anchor="end" stroke="none" fill="#000">태안 (안면도) →</text></g></g><rect x="79.39" y="275.13" width="19.09" height="2.98" fill="none" stroke="#000" stroke-width="0.18"/><line x1="81.19" y1="275.13" x2="79.39" y2="276.93" stroke="#000" stroke-width="0.18"/><line x1="82.99" y1="275.13" x2="80.01" y2="278.11" stroke="#000" stroke-width="0.18"/><line x1="84.79" y1="275.13" x2="81.81" y2="278.11" stroke="#000" stroke-width="0.18"/><line x1="86.59" y1="275.13" x2="83.61" y2="278.11" stroke="#000" stroke-width="0.18"/><line x1="88.39" y1="275.13" x2="85.41" y2="278.11" stroke="#000" stroke-width="0.18"/><line x1="90.19" y1="275.13" x2="87.21" y2="278.11" stroke="#000" stroke-width="0.18"/><line x1="91.99" y1="275.13" x2="89.01" y2="278.11" stroke="#000" stroke-width="0.18"/><line x1="93.79" y1="275.13" x2="90.81" y2="278.11" stroke="#000" stroke-width="0.18"/><line x1="95.59" y1="275.13" x2="92.61" y2="278.11" stroke="#000" stroke-width="0.18"/><line x1="97.39" y1="275.13" x2="94.41" y2="278.11" stroke="#000" stroke-width="0.18"/><line x1="98.48" y1="275.84" x2="96.21" y2="278.11" stroke="#000" stroke-width="0.18"/><line x1="98.48" y1="277.64" x2="98.01" y2="278.11" stroke="#000" stroke-width="0.18"/><text x="88.94" y="273.93" font-family="Malgun Gothic, 'Noto Sans KR', sans-serif" font-size="2.60" text-anchor="middle" font-weight="bold" fill="#000">SN01~SN04 Stringer</text><text x="286.00" y="269.00" font-family="Malgun Gothic, 'Noto Sans KR', sans-serif" font-size="2.40" text-anchor="middle" font-weight="normal" fill="#555">세로보 단면 TYPE</text><text x="286.00" y="273.60" font-family="Malgun Gothic, 'Noto Sans KR', sans-serif" font-size="2.00" text-anchor="middle" font-weight="normal" fill="#888">(표준단면 · 위치번호 — 추후 반영)</text><path d="M342.5 252.4 l2 -1.4 l2 1.6 l2 -1.5 l2 1.3" fill="none" stroke="#000" stroke-width="0.30" stroke-linejoin="round"/><text x="353.00" y="253.30" font-family="Malgun Gothic, 'Noto Sans KR', sans-serif" font-size="2.20" text-anchor="start" font-weight="normal" fill="#000">균열</text><line x1="379.50" y1="250.80" x2="381.50" y2="254.00" stroke="#000" stroke-width="0.25"/><line x1="381.50" y1="250.80" x2="379.50" y2="254.00" stroke="#000" stroke-width="0.25"/><line x1="382.50" y1="250.80" x2="384.50" y2="254.00" stroke="#000" stroke-width="0.25"/><line x1="384.50" y1="250.80" x2="382.50" y2="254.00" stroke="#000" stroke-width="0.25"/><line x1="385.50" y1="250.80" x2="387.50" y2="254.00" stroke="#000" stroke-width="0.25"/><line x1="387.50" y1="250.80" x2="385.50" y2="254.00" stroke="#000" stroke-width="0.25"/><text x="390.00" y="253.30" font-family="Malgun Gothic, 'Noto Sans KR', sans-serif" font-size="2.20" text-anchor="start" font-weight="normal" fill="#000">망상균열</text><rect x="342.50" y="259.60" width="9.00" height="3.20" fill="none" stroke="#000" stroke-width="0.20"/><line x1="344.10" y1="259.60" x2="342.50" y2="261.20" stroke="#000" stroke-width="0.20"/><line x1="345.70" y1="259.60" x2="342.50" y2="262.80" stroke="#000" stroke-width="0.20"/><line x1="347.30" y1="259.60" x2="344.10" y2="262.80" stroke="#000" stroke-width="0.20"/><line x1="348.90" y1="259.60" x2="345.70" y2="262.80" stroke="#000" stroke-width="0.20"/><line x1="350.50" y1="259.60" x2="347.30" y2="262.80" stroke="#000" stroke-width="0.20"/><line x1="351.50" y1="260.20" x2="348.90" y2="262.80" stroke="#000" stroke-width="0.20"/><line x1="351.50" y1="261.80" x2="350.50" y2="262.80" stroke="#000" stroke-width="0.20"/><text x="353.00" y="262.10" font-family="Malgun Gothic, 'Noto Sans KR', sans-serif" font-size="2.20" text-anchor="start" font-weight="normal" fill="#000">재료분리</text><path d="M379.5 261.2 l2 -1.6 l2.4 0.4 l2 -0.6 l2.4 1.8 l-1.6 1.6 l-4.6 0.2 Z" fill="none" stroke="#000" stroke-width="0.30" stroke-linejoin="round"/><text x="390.00" y="262.10" font-family="Malgun Gothic, 'Noto Sans KR', sans-serif" font-size="2.20" text-anchor="start" font-weight="normal" fill="#000">박리·파손</text><path d="M342.5 270.0 q1.2 -1.8 2.4 0 q1.2 1.8 2.4 0 q1.2 -1.8 2.4 0" fill="none" stroke="#000" stroke-width="0.30" stroke-linejoin="round"/><text x="353.00" y="270.90" font-family="Malgun Gothic, 'Noto Sans KR', sans-serif" font-size="2.20" text-anchor="start" font-weight="normal" fill="#000">누수·습윤</text><circle cx="380.5" cy="269.1" r="0.3" fill="#000"/><circle cx="383.5" cy="269.1" r="0.3" fill="#000"/><circle cx="386.5" cy="269.1" r="0.3" fill="#000"/><circle cx="380.5" cy="270.9" r="0.3" fill="#000"/><circle cx="383.5" cy="270.9" r="0.3" fill="#000"/><circle cx="386.5" cy="270.9" r="0.3" fill="#000"/><text x="390.00" y="270.90" font-family="Malgun Gothic, 'Noto Sans KR', sans-serif" font-size="2.20" text-anchor="start" font-weight="normal" fill="#000">백태</text><line x1="342.50" y1="278.80" x2="351.50" y2="278.80" stroke="#000" stroke-width="0.60" stroke-dasharray="2,1"/><text x="353.00" y="279.70" font-family="Malgun Gothic, 'Noto Sans KR', sans-serif" font-size="2.20" text-anchor="start" font-weight="normal" fill="#000">철근노출</text><rect x="379.50" y="277.20" width="9.00" height="3.20" fill="none" stroke="#000" stroke-width="0.20"/><line x1="381.70" y1="277.20" x2="379.50" y2="279.40" stroke="#000" stroke-width="0.20"/><line x1="383.90" y1="277.20" x2="380.70" y2="280.40" stroke="#000" stroke-width="0.20"/><line x1="386.10" y1="277.20" x2="382.90" y2="280.40" stroke="#000" stroke-width="0.20"/><line x1="388.30" y1="277.20" x2="385.10" y2="280.40" stroke="#000" stroke-width="0.20"/><line x1="388.50" y1="279.20" x2="387.30" y2="280.40" stroke="#000" stroke-width="0.20"/><line x1="379.50" y1="277.20" x2="388.50" y2="280.40" stroke="#000" stroke-width="0.20"/><text x="390.00" y="279.70" font-family="Malgun Gothic, 'Noto Sans KR', sans-serif" font-size="2.20" text-anchor="start" font-weight="normal" fill="#000">부식</text><path d="M342.5 287.6 l3 -1.6 l1.6 1.6 l-1.6 1.6 Z" fill="none" stroke="#000" stroke-width="0.30" stroke-linejoin="round"/><path d="M347.5 286.2 l3 1.4" fill="none" stroke="#000" stroke-width="0.30" stroke-linejoin="round"/><text x="353.00" y="288.50" font-family="Malgun Gothic, 'Noto Sans KR', sans-serif" font-size="2.20" text-anchor="start" font-weight="normal" fill="#000">파손·변형</text><path d="M379.5 288.4 q2.2 -2.6 4.5 0 q2.2 -2.2 4.5 0" fill="none" stroke="#000" stroke-width="0.30" stroke-linejoin="round"/><text x="390.00" y="288.50" font-family="Malgun Gothic, 'Noto Sans KR', sans-serif" font-size="2.20" text-anchor="start" font-weight="normal" fill="#000">이물질퇴적</text><line x1="341.00" y1="256.80" x2="415.00" y2="256.80" stroke="#000" stroke-width="0.13"/><line x1="341.00" y1="265.60" x2="415.00" y2="265.60" stroke="#000" stroke-width="0.13"/><line x1="341.00" y1="274.40" x2="415.00" y2="274.40" stroke="#000" stroke-width="0.13"/><line x1="341.00" y1="283.20" x2="415.00" y2="283.20" stroke="#000" stroke-width="0.13"/><line x1="378.00" y1="248.00" x2="378.00" y2="292.00" stroke="#000" stroke-width="0.13"/></svg>